<svg width="48" height="48" viewBox="0 0 48 48" fill="none" xmlns="http://www.w3.org/2000/svg">
<g clip-path="url(#clip0_685_88359)">
<rect width="48" height="48" fill="#DCF835"/>
<path fill-rule="evenodd" clip-rule="evenodd" d="M11.3841 21.62C11.3841 19.3133 12.4503 17.9667 14.0993 17.9667C15.5894 17.9667 16.3046 19.0867 16.3046 20.7867V28H18.6821V21.62C18.6821 19.3133 19.7483 17.9667 21.4172 17.9667C22.8874 17.9667 23.6225 19.0867 23.6225 20.7867V28H26V20.1667C26 17.48 24.5762 16 22.2848 16C20.5033 16 19.1258 16.8933 18.457 18.5067C17.9868 16.8467 16.7219 16 14.9868 16C13.2318 16 11.894 16.8533 11.2053 18.3933V16.2667H9V28H11.3775V21.62H11.3841Z" fill="#191C1E"/>
<path fill-rule="evenodd" clip-rule="evenodd" d="M39 22.3978C39 17.9957 37.0654 16 33.6209 16C30.3464 16 28 17.9304 28 22C28 26.0957 30.3464 28 33.7712 28C36.4967 28 38.2484 26.7283 38.8431 24.6935L36.6013 24.5435C36.1373 25.6391 35.2157 26.3174 33.7712 26.3174C31.8627 26.3174 30.5229 25.1109 30.3464 22.6783H39V22.3978ZM30.3725 21.1457C30.5948 18.8239 31.8627 17.6826 33.6209 17.6826C35.4444 17.6826 36.5817 19 36.6732 21.1457H30.3725Z" fill="#191C1E"/>
<path d="M39 31H9V33H39V31Z" fill="#191C1E"/>
</g>
<defs>
<clipPath id="clip0_685_88359">
<rect width="48" height="48" fill="white"/>
</clipPath>
</defs>
</svg>
