<svg width="17" height="16" viewBox="0 0 17 16" fill="none" xmlns="http://www.w3.org/2000/svg">
<path d="M14.7501 8C14.7501 8.19891 14.6711 8.38968 14.5305 8.53033C14.3898 8.67098 14.199 8.75 14.0001 8.75H9.25012V13.5C9.25012 13.6989 9.1711 13.8897 9.03045 14.0303C8.8898 14.171 8.69904 14.25 8.50012 14.25C8.30121 14.25 8.11045 14.171 7.96979 14.0303C7.82914 13.8897 7.75012 13.6989 7.75012 13.5V8.75H3.00012C2.80121 8.75 2.61044 8.67098 2.46979 8.53033C2.32914 8.38968 2.25012 8.19891 2.25012 8C2.25012 7.80109 2.32914 7.61032 2.46979 7.46967C2.61044 7.32902 2.80121 7.25 3.00012 7.25H7.75012V2.5C7.75012 2.30109 7.82914 2.11032 7.96979 1.96967C8.11045 1.82902 8.30121 1.75 8.50012 1.75C8.69904 1.75 8.8898 1.82902 9.03045 1.96967C9.1711 2.11032 9.25012 2.30109 9.25012 2.5V7.25H14.0001C14.199 7.25 14.3898 7.32902 14.5305 7.46967C14.6711 7.61032 14.7501 7.80109 14.7501 8Z" fill="#C4C4C4"/>
</svg>
